<svg width="1538" height="725" viewBox="0 0 1538 725" fill="none" xmlns="http://www.w3.org/2000/svg">
<g clip-path="url(#clip0_1_33)">
<rect width="1538" height="725" fill="white"/>
<g filter="url(#filter0_f_1_33)">
<path d="M570.152 267.391L589.779 191.93L694.083 157L803.995 168.466C803.995 168.466 852.782 185.264 810.724 225.528C768.666 265.791 749.039 248.193 715.393 277.79C681.746 307.388 570.152 267.391 570.152 267.391Z" fill="#3E17A9"/>
</g>
<g filter="url(#filter1_f_1_33)">
<path d="M792.893 243.919C743.652 240.216 758.161 226.991 753.324 196.044C748.488 165.097 758.161 179.381 758.161 179.381L849.609 170.652L941.937 204.773L955.127 247.887C955.127 247.887 941.937 262.963 887.42 262.17C832.902 261.376 842.135 247.622 792.893 243.919Z" fill="#3E6E99"/>
</g>
<g filter="url(#filter2_f_1_33)">
<path d="M656.694 270.432C593.467 255.305 579.855 265.655 579.855 265.655L568 385.076L732.655 404.449C775.831 389.233 739.515 439.479 771.733 414.798C809.493 385.872 827.056 407.899 864.817 385.076C902.578 362.253 847.693 324.835 820.909 315.547C794.126 306.258 741.436 325.896 719.482 311.831C697.528 297.766 719.921 285.559 656.694 270.432Z" fill="#2B9BE0"/>
</g>
<g filter="url(#filter3_f_1_33)">
<path d="M899.276 261.184C922.536 246.628 969.934 259.066 969.934 259.066L933.947 434L752.254 421.826C752.254 421.826 764.103 371.278 782.097 349.577C800.091 327.875 816.329 326.552 841.784 318.613C867.238 310.673 876.016 275.739 899.276 261.184Z" fill="#3DDB85"/>
</g>
<path d="M552.795 646.44H572.875V651.72H559.075V658.32H571.035V663.2H559.075V675H552.795V646.44ZM575.666 660.68C575.746 659.347 576.079 658.24 576.666 657.36C577.253 656.48 577.999 655.773 578.906 655.24C579.813 654.707 580.826 654.333 581.946 654.12C583.093 653.88 584.239 653.76 585.386 653.76C586.426 653.76 587.479 653.84 588.546 654C589.613 654.133 590.586 654.413 591.466 654.84C592.346 655.267 593.066 655.867 593.626 656.64C594.186 657.387 594.466 658.387 594.466 659.64V670.4C594.466 671.333 594.519 672.227 594.626 673.08C594.733 673.933 594.919 674.573 595.186 675H589.426C589.319 674.68 589.226 674.36 589.146 674.04C589.093 673.693 589.053 673.347 589.026 673C588.119 673.933 587.053 674.587 585.826 674.96C584.599 675.333 583.346 675.52 582.066 675.52C581.079 675.52 580.159 675.4 579.306 675.16C578.453 674.92 577.706 674.547 577.066 674.04C576.426 673.533 575.919 672.893 575.546 672.12C575.199 671.347 575.026 670.427 575.026 669.36C575.026 668.187 575.226 667.227 575.626 666.48C576.053 665.707 576.586 665.093 577.226 664.64C577.893 664.187 578.639 663.853 579.466 663.64C580.319 663.4 581.173 663.213 582.026 663.08C582.879 662.947 583.719 662.84 584.546 662.76C585.373 662.68 586.106 662.56 586.746 662.4C587.386 662.24 587.893 662.013 588.266 661.72C588.639 661.4 588.813 660.947 588.786 660.36C588.786 659.747 588.679 659.267 588.466 658.92C588.279 658.547 588.013 658.267 587.666 658.08C587.346 657.867 586.959 657.733 586.506 657.68C586.079 657.6 585.613 657.56 585.106 657.56C583.986 657.56 583.106 657.8 582.466 658.28C581.826 658.76 581.453 659.56 581.346 660.68H575.666ZM588.786 664.88C588.546 665.093 588.239 665.267 587.866 665.4C587.519 665.507 587.133 665.6 586.706 665.68C586.306 665.76 585.879 665.827 585.426 665.88C584.973 665.933 584.519 666 584.066 666.08C583.639 666.16 583.213 666.267 582.786 666.4C582.386 666.533 582.026 666.72 581.706 666.96C581.413 667.173 581.173 667.453 580.986 667.8C580.799 668.147 580.706 668.587 580.706 669.12C580.706 669.627 580.799 670.053 580.986 670.4C581.173 670.747 581.426 671.027 581.746 671.24C582.066 671.427 582.439 671.56 582.866 671.64C583.293 671.72 583.733 671.76 584.186 671.76C585.306 671.76 586.173 671.573 586.786 671.2C587.399 670.827 587.853 670.387 588.146 669.88C588.439 669.347 588.613 668.813 588.666 668.28C588.746 667.747 588.786 667.32 588.786 667V664.88ZM603.275 668.28C603.275 668.893 603.395 669.427 603.635 669.88C603.902 670.307 604.235 670.667 604.635 670.96C605.035 671.227 605.488 671.427 605.995 671.56C606.528 671.693 607.075 671.76 607.635 671.76C608.035 671.76 608.448 671.72 608.875 671.64C609.328 671.533 609.728 671.387 610.075 671.2C610.448 670.987 610.755 670.72 610.995 670.4C611.235 670.053 611.355 669.627 611.355 669.12C611.355 668.267 610.782 667.627 609.635 667.2C608.515 666.773 606.942 666.347 604.915 665.92C604.088 665.733 603.275 665.52 602.475 665.28C601.702 665.013 601.008 664.68 600.395 664.28C599.782 663.853 599.288 663.333 598.915 662.72C598.542 662.08 598.355 661.307 598.355 660.4C598.355 659.067 598.608 657.973 599.115 657.12C599.648 656.267 600.342 655.6 601.195 655.12C602.048 654.613 603.008 654.267 604.075 654.08C605.142 653.867 606.235 653.76 607.355 653.76C608.475 653.76 609.555 653.867 610.595 654.08C611.662 654.293 612.608 654.653 613.435 655.16C614.262 655.667 614.942 656.347 615.475 657.2C616.035 658.027 616.368 659.08 616.475 660.36H611.075C610.995 659.267 610.582 658.533 609.835 658.16C609.088 657.76 608.208 657.56 607.195 657.56C606.875 657.56 606.528 657.587 606.155 657.64C605.782 657.667 605.435 657.747 605.115 657.88C604.822 658.013 604.568 658.213 604.355 658.48C604.142 658.72 604.035 659.053 604.035 659.48C604.035 659.987 604.222 660.4 604.595 660.72C604.968 661.04 605.448 661.307 606.035 661.52C606.648 661.707 607.342 661.88 608.115 662.04C608.888 662.2 609.675 662.373 610.475 662.56C611.302 662.747 612.102 662.973 612.875 663.24C613.675 663.507 614.382 663.867 614.995 664.32C615.608 664.747 616.102 665.293 616.475 665.96C616.848 666.6 617.035 667.4 617.035 668.36C617.035 669.72 616.755 670.867 616.195 671.8C615.662 672.707 614.955 673.44 614.075 674C613.195 674.56 612.182 674.947 611.035 675.16C609.915 675.4 608.768 675.52 607.595 675.52C606.395 675.52 605.222 675.4 604.075 675.16C602.928 674.92 601.902 674.52 600.995 673.96C600.115 673.4 599.382 672.667 598.795 671.76C598.235 670.827 597.928 669.667 597.875 668.28H603.275ZM627.559 654.32H631.719V658.12H627.559V668.36C627.559 669.32 627.719 669.96 628.039 670.28C628.359 670.6 628.999 670.76 629.959 670.76C630.279 670.76 630.586 670.747 630.879 670.72C631.173 670.693 631.453 670.653 631.719 670.6V675C631.239 675.08 630.706 675.133 630.119 675.16C629.533 675.187 628.959 675.2 628.399 675.2C627.519 675.2 626.679 675.133 625.879 675C625.106 674.893 624.413 674.667 623.799 674.32C623.213 673.973 622.746 673.48 622.399 672.84C622.053 672.2 621.879 671.36 621.879 670.32V658.12H618.439V654.32H621.879V648.12H627.559V654.32ZM648.342 662.44C648.075 661 647.595 659.907 646.902 659.16C646.235 658.413 645.208 658.04 643.822 658.04C642.915 658.04 642.155 658.2 641.542 658.52C640.955 658.813 640.475 659.187 640.102 659.64C639.755 660.093 639.502 660.573 639.342 661.08C639.208 661.587 639.128 662.04 639.102 662.44H648.342ZM639.102 666.04C639.182 667.88 639.648 669.213 640.502 670.04C641.355 670.867 642.582 671.28 644.182 671.28C645.328 671.28 646.315 671 647.142 670.44C647.968 669.853 648.475 669.24 648.662 668.6H653.662C652.862 671.08 651.635 672.853 649.982 673.92C648.328 674.987 646.328 675.52 643.982 675.52C642.355 675.52 640.888 675.267 639.582 674.76C638.275 674.227 637.168 673.48 636.262 672.52C635.355 671.56 634.648 670.413 634.142 669.08C633.662 667.747 633.422 666.28 633.422 664.68C633.422 663.133 633.675 661.693 634.182 660.36C634.688 659.027 635.408 657.88 636.342 656.92C637.275 655.933 638.382 655.16 639.662 654.6C640.968 654.04 642.408 653.76 643.982 653.76C645.742 653.76 647.275 654.107 648.582 654.8C649.888 655.467 650.955 656.373 651.782 657.52C652.635 658.667 653.248 659.973 653.622 661.44C653.995 662.907 654.128 664.44 654.022 666.04H639.102ZM657.39 654.32H662.79V658.16H662.87C663.137 657.52 663.497 656.933 663.95 656.4C664.404 655.84 664.924 655.373 665.51 655C666.097 654.6 666.724 654.293 667.39 654.08C668.057 653.867 668.75 653.76 669.47 653.76C669.844 653.76 670.257 653.827 670.71 653.96V659.24C670.444 659.187 670.124 659.147 669.75 659.12C669.377 659.067 669.017 659.04 668.67 659.04C667.63 659.04 666.75 659.213 666.03 659.56C665.31 659.907 664.724 660.387 664.27 661C663.844 661.587 663.537 662.28 663.35 663.08C663.164 663.88 663.07 664.747 663.07 665.68V675H657.39V654.32ZM669.505 668.84H675.785V675H669.505V668.84ZM692.131 646.44H713.491V651.72H698.411V657.84H712.251V662.72H698.411V669.72H713.811V675H692.131V646.44ZM717.229 660.68C717.309 659.347 717.642 658.24 718.229 657.36C718.815 656.48 719.562 655.773 720.469 655.24C721.375 654.707 722.389 654.333 723.509 654.12C724.655 653.88 725.802 653.76 726.949 653.76C727.989 653.76 729.042 653.84 730.109 654C731.175 654.133 732.149 654.413 733.029 654.84C733.909 655.267 734.629 655.867 735.189 656.64C735.749 657.387 736.029 658.387 736.029 659.64V670.4C736.029 671.333 736.082 672.227 736.189 673.08C736.295 673.933 736.482 674.573 736.749 675H730.989C730.882 674.68 730.789 674.36 730.709 674.04C730.655 673.693 730.615 673.347 730.589 673C729.682 673.933 728.615 674.587 727.389 674.96C726.162 675.333 724.909 675.52 723.629 675.52C722.642 675.52 721.722 675.4 720.869 675.16C720.015 674.92 719.269 674.547 718.629 674.04C717.989 673.533 717.482 672.893 717.109 672.12C716.762 671.347 716.589 670.427 716.589 669.36C716.589 668.187 716.789 667.227 717.189 666.48C717.615 665.707 718.149 665.093 718.789 664.64C719.455 664.187 720.202 663.853 721.029 663.64C721.882 663.4 722.735 663.213 723.589 663.08C724.442 662.947 725.282 662.84 726.109 662.76C726.935 662.68 727.669 662.56 728.309 662.4C728.949 662.24 729.455 662.013 729.829 661.72C730.202 661.4 730.375 660.947 730.349 660.36C730.349 659.747 730.242 659.267 730.029 658.92C729.842 658.547 729.575 658.267 729.229 658.08C728.909 657.867 728.522 657.733 728.069 657.68C727.642 657.6 727.175 657.56 726.669 657.56C725.549 657.56 724.669 657.8 724.029 658.28C723.389 658.76 723.015 659.56 722.909 660.68H717.229ZM730.349 664.88C730.109 665.093 729.802 665.267 729.429 665.4C729.082 665.507 728.695 665.6 728.269 665.68C727.869 665.76 727.442 665.827 726.989 665.88C726.535 665.933 726.082 666 725.629 666.08C725.202 666.16 724.775 666.267 724.349 666.4C723.949 666.533 723.589 666.72 723.269 666.96C722.975 667.173 722.735 667.453 722.549 667.8C722.362 668.147 722.269 668.587 722.269 669.12C722.269 669.627 722.362 670.053 722.549 670.4C722.735 670.747 722.989 671.027 723.309 671.24C723.629 671.427 724.002 671.56 724.429 671.64C724.855 671.72 725.295 671.76 725.749 671.76C726.869 671.76 727.735 671.573 728.349 671.2C728.962 670.827 729.415 670.387 729.709 669.88C730.002 669.347 730.175 668.813 730.229 668.28C730.309 667.747 730.349 667.32 730.349 667V664.88ZM744.837 668.28C744.837 668.893 744.957 669.427 745.197 669.88C745.464 670.307 745.797 670.667 746.197 670.96C746.597 671.227 747.051 671.427 747.557 671.56C748.091 671.693 748.637 671.76 749.197 671.76C749.597 671.76 750.011 671.72 750.437 671.64C750.891 671.533 751.291 671.387 751.637 671.2C752.011 670.987 752.317 670.72 752.557 670.4C752.797 670.053 752.917 669.627 752.917 669.12C752.917 668.267 752.344 667.627 751.197 667.2C750.077 666.773 748.504 666.347 746.477 665.92C745.651 665.733 744.837 665.52 744.037 665.28C743.264 665.013 742.571 664.68 741.957 664.28C741.344 663.853 740.851 663.333 740.477 662.72C740.104 662.08 739.917 661.307 739.917 660.4C739.917 659.067 740.171 657.973 740.677 657.12C741.211 656.267 741.904 655.6 742.757 655.12C743.611 654.613 744.571 654.267 745.637 654.08C746.704 653.867 747.797 653.76 748.917 653.76C750.037 653.76 751.117 653.867 752.157 654.08C753.224 654.293 754.171 654.653 754.997 655.16C755.824 655.667 756.504 656.347 757.037 657.2C757.597 658.027 757.931 659.08 758.037 660.36H752.637C752.557 659.267 752.144 658.533 751.397 658.16C750.651 657.76 749.771 657.56 748.757 657.56C748.437 657.56 748.091 657.587 747.717 657.64C747.344 657.667 746.997 657.747 746.677 657.88C746.384 658.013 746.131 658.213 745.917 658.48C745.704 658.72 745.597 659.053 745.597 659.48C745.597 659.987 745.784 660.4 746.157 660.72C746.531 661.04 747.011 661.307 747.597 661.52C748.211 661.707 748.904 661.88 749.677 662.04C750.451 662.2 751.237 662.373 752.037 662.56C752.864 662.747 753.664 662.973 754.437 663.24C755.237 663.507 755.944 663.867 756.557 664.32C757.171 664.747 757.664 665.293 758.037 665.96C758.411 666.6 758.597 667.4 758.597 668.36C758.597 669.72 758.317 670.867 757.757 671.8C757.224 672.707 756.517 673.44 755.637 674C754.757 674.56 753.744 674.947 752.597 675.16C751.477 675.4 750.331 675.52 749.157 675.52C747.957 675.52 746.784 675.4 745.637 675.16C744.491 674.92 743.464 674.52 742.557 673.96C741.677 673.4 740.944 672.667 740.357 671.76C739.797 670.827 739.491 669.667 739.437 668.28H744.837ZM767.762 651.12H762.082V646.44H767.762V651.12ZM762.082 654.32H767.762V675H762.082V654.32ZM786.154 662.44C785.888 661 785.408 659.907 784.714 659.16C784.048 658.413 783.021 658.04 781.634 658.04C780.728 658.04 779.968 658.2 779.354 658.52C778.768 658.813 778.288 659.187 777.914 659.64C777.568 660.093 777.314 660.573 777.154 661.08C777.021 661.587 776.941 662.04 776.914 662.44H786.154ZM776.914 666.04C776.994 667.88 777.461 669.213 778.314 670.04C779.168 670.867 780.394 671.28 781.994 671.28C783.141 671.28 784.128 671 784.954 670.44C785.781 669.853 786.288 669.24 786.474 668.6H791.474C790.674 671.08 789.448 672.853 787.794 673.92C786.141 674.987 784.141 675.52 781.794 675.52C780.168 675.52 778.701 675.267 777.394 674.76C776.088 674.227 774.981 673.48 774.074 672.52C773.168 671.56 772.461 670.413 771.954 669.08C771.474 667.747 771.234 666.28 771.234 664.68C771.234 663.133 771.488 661.693 771.994 660.36C772.501 659.027 773.221 657.88 774.154 656.92C775.088 655.933 776.194 655.16 777.474 654.6C778.781 654.04 780.221 653.76 781.794 653.76C783.554 653.76 785.088 654.107 786.394 654.8C787.701 655.467 788.768 656.373 789.594 657.52C790.448 658.667 791.061 659.973 791.434 661.44C791.808 662.907 791.941 664.44 791.834 666.04H776.914ZM795.203 654.32H800.603V658.16H800.683C800.95 657.52 801.31 656.933 801.763 656.4C802.216 655.84 802.736 655.373 803.323 655C803.91 654.6 804.536 654.293 805.203 654.08C805.87 653.867 806.563 653.76 807.283 653.76C807.656 653.76 808.07 653.827 808.523 653.96V659.24C808.256 659.187 807.936 659.147 807.563 659.12C807.19 659.067 806.83 659.04 806.483 659.04C805.443 659.04 804.563 659.213 803.843 659.56C803.123 659.907 802.536 660.387 802.083 661C801.656 661.587 801.35 662.28 801.163 663.08C800.976 663.88 800.883 664.747 800.883 665.68V675H795.203V654.32ZM807.318 668.84H813.598V675H807.318V668.84ZM834.224 665.52C834.224 666.48 834.397 667.293 834.744 667.96C835.09 668.627 835.544 669.173 836.104 669.6C836.69 670 837.37 670.307 838.144 670.52C838.917 670.707 839.717 670.8 840.544 670.8C841.104 670.8 841.704 670.76 842.344 670.68C842.984 670.573 843.584 670.387 844.144 670.12C844.704 669.853 845.17 669.493 845.544 669.04C845.917 668.56 846.104 667.96 846.104 667.24C846.104 666.467 845.85 665.84 845.344 665.36C844.864 664.88 844.224 664.48 843.424 664.16C842.624 663.84 841.717 663.56 840.704 663.32C839.69 663.08 838.664 662.813 837.624 662.52C836.557 662.253 835.517 661.933 834.504 661.56C833.49 661.16 832.584 660.653 831.784 660.04C830.984 659.427 830.33 658.667 829.824 657.76C829.344 656.827 829.104 655.707 829.104 654.4C829.104 652.933 829.41 651.667 830.024 650.6C830.664 649.507 831.49 648.6 832.504 647.88C833.517 647.16 834.664 646.627 835.944 646.28C837.224 645.933 838.504 645.76 839.784 645.76C841.277 645.76 842.704 645.933 844.064 646.28C845.45 646.6 846.677 647.133 847.744 647.88C848.81 648.627 849.65 649.587 850.264 650.76C850.904 651.907 851.224 653.307 851.224 654.96H845.144C845.09 654.107 844.904 653.4 844.584 652.84C844.29 652.28 843.89 651.84 843.384 651.52C842.877 651.2 842.29 650.973 841.624 650.84C840.984 650.707 840.277 650.64 839.504 650.64C838.997 650.64 838.49 650.693 837.984 650.8C837.477 650.907 837.01 651.093 836.584 651.36C836.184 651.627 835.85 651.96 835.584 652.36C835.317 652.76 835.184 653.267 835.184 653.88C835.184 654.44 835.29 654.893 835.504 655.24C835.717 655.587 836.13 655.907 836.744 656.2C837.384 656.493 838.25 656.787 839.344 657.08C840.464 657.373 841.917 657.747 843.704 658.2C844.237 658.307 844.97 658.507 845.904 658.8C846.864 659.067 847.81 659.507 848.744 660.12C849.677 660.733 850.477 661.56 851.144 662.6C851.837 663.613 852.184 664.92 852.184 666.52C852.184 667.827 851.93 669.04 851.424 670.16C850.917 671.28 850.157 672.253 849.144 673.08C848.157 673.88 846.917 674.507 845.424 674.96C843.957 675.413 842.25 675.64 840.304 675.64C838.73 675.64 837.197 675.44 835.704 675.04C834.237 674.667 832.93 674.067 831.784 673.24C830.664 672.413 829.77 671.36 829.104 670.08C828.437 668.8 828.117 667.28 828.144 665.52H834.224ZM855.48 654.32H860.84V657.12H860.92C861.667 656.053 862.56 655.227 863.6 654.64C864.667 654.053 865.88 653.76 867.24 653.76C868.547 653.76 869.733 654.013 870.8 654.52C871.893 655.027 872.72 655.92 873.28 657.2C873.893 656.293 874.72 655.493 875.76 654.8C876.827 654.107 878.08 653.76 879.52 653.76C880.613 653.76 881.627 653.893 882.56 654.16C883.493 654.427 884.293 654.853 884.96 655.44C885.627 656.027 886.147 656.8 886.52 657.76C886.893 658.693 887.08 659.827 887.08 661.16V675H881.4V663.28C881.4 662.587 881.373 661.933 881.32 661.32C881.267 660.707 881.12 660.173 880.88 659.72C880.64 659.267 880.28 658.907 879.8 658.64C879.347 658.373 878.72 658.24 877.92 658.24C877.12 658.24 876.467 658.4 875.96 658.72C875.48 659.013 875.093 659.413 874.8 659.92C874.533 660.4 874.347 660.96 874.24 661.6C874.16 662.213 874.12 662.84 874.12 663.48V675H868.44V663.4C868.44 662.787 868.427 662.187 868.4 661.6C868.373 660.987 868.253 660.427 868.04 659.92C867.853 659.413 867.52 659.013 867.04 658.72C866.587 658.4 865.907 658.24 865 658.24C864.733 658.24 864.373 658.307 863.92 658.44C863.493 658.547 863.067 658.773 862.64 659.12C862.24 659.44 861.893 659.92 861.6 660.56C861.307 661.173 861.16 661.987 861.16 663V675H855.48V654.32ZM891.33 660.68C891.41 659.347 891.743 658.24 892.33 657.36C892.917 656.48 893.663 655.773 894.57 655.24C895.477 654.707 896.49 654.333 897.61 654.12C898.757 653.88 899.903 653.76 901.05 653.76C902.09 653.76 903.143 653.84 904.21 654C905.277 654.133 906.25 654.413 907.13 654.84C908.01 655.267 908.73 655.867 909.29 656.64C909.85 657.387 910.13 658.387 910.13 659.64V670.4C910.13 671.333 910.183 672.227 910.29 673.08C910.397 673.933 910.583 674.573 910.85 675H905.09C904.983 674.68 904.89 674.36 904.81 674.04C904.757 673.693 904.717 673.347 904.69 673C903.783 673.933 902.717 674.587 901.49 674.96C900.263 675.333 899.01 675.52 897.73 675.52C896.743 675.52 895.823 675.4 894.97 675.16C894.117 674.92 893.37 674.547 892.73 674.04C892.09 673.533 891.583 672.893 891.21 672.12C890.863 671.347 890.69 670.427 890.69 669.36C890.69 668.187 890.89 667.227 891.29 666.48C891.717 665.707 892.25 665.093 892.89 664.64C893.557 664.187 894.303 663.853 895.13 663.64C895.983 663.4 896.837 663.213 897.69 663.08C898.543 662.947 899.383 662.84 900.21 662.76C901.037 662.68 901.77 662.56 902.41 662.4C903.05 662.24 903.557 662.013 903.93 661.72C904.303 661.4 904.477 660.947 904.45 660.36C904.45 659.747 904.343 659.267 904.13 658.92C903.943 658.547 903.677 658.267 903.33 658.08C903.01 657.867 902.623 657.733 902.17 657.68C901.743 657.6 901.277 657.56 900.77 657.56C899.65 657.56 898.77 657.8 898.13 658.28C897.49 658.76 897.117 659.56 897.01 660.68H891.33ZM904.45 664.88C904.21 665.093 903.903 665.267 903.53 665.4C903.183 665.507 902.797 665.6 902.37 665.68C901.97 665.76 901.543 665.827 901.09 665.88C900.637 665.933 900.183 666 899.73 666.08C899.303 666.16 898.877 666.267 898.45 666.4C898.05 666.533 897.69 666.72 897.37 666.96C897.077 667.173 896.837 667.453 896.65 667.8C896.463 668.147 896.37 668.587 896.37 669.12C896.37 669.627 896.463 670.053 896.65 670.4C896.837 670.747 897.09 671.027 897.41 671.24C897.73 671.427 898.103 671.56 898.53 671.64C898.957 671.72 899.397 671.76 899.85 671.76C900.97 671.76 901.837 671.573 902.45 671.2C903.063 670.827 903.517 670.387 903.81 669.88C904.103 669.347 904.277 668.813 904.33 668.28C904.41 667.747 904.45 667.32 904.45 667V664.88ZM914.539 654.32H919.939V658.16H920.019C920.286 657.52 920.646 656.933 921.099 656.4C921.552 655.84 922.072 655.373 922.659 655C923.246 654.6 923.872 654.293 924.539 654.08C925.206 653.867 925.899 653.76 926.619 653.76C926.992 653.76 927.406 653.827 927.859 653.96V659.24C927.592 659.187 927.272 659.147 926.899 659.12C926.526 659.067 926.166 659.04 925.819 659.04C924.779 659.04 923.899 659.213 923.179 659.56C922.459 659.907 921.872 660.387 921.419 661C920.992 661.587 920.686 662.28 920.499 663.08C920.312 663.88 920.219 664.747 920.219 665.68V675H914.539V654.32ZM937.286 654.32H941.446V658.12H937.286V668.36C937.286 669.32 937.446 669.96 937.766 670.28C938.086 670.6 938.726 670.76 939.686 670.76C940.006 670.76 940.312 670.747 940.606 670.72C940.899 670.693 941.179 670.653 941.446 670.6V675C940.966 675.08 940.432 675.133 939.846 675.16C939.259 675.187 938.686 675.2 938.126 675.2C937.246 675.2 936.406 675.133 935.606 675C934.832 674.893 934.139 674.667 933.526 674.32C932.939 673.973 932.472 673.48 932.126 672.84C931.779 672.2 931.606 671.36 931.606 670.32V658.12H928.166V654.32H931.606V648.12H937.286V654.32ZM958.068 662.44C957.802 661 957.322 659.907 956.628 659.16C955.962 658.413 954.935 658.04 953.548 658.04C952.642 658.04 951.882 658.2 951.268 658.52C950.682 658.813 950.202 659.187 949.828 659.64C949.482 660.093 949.228 660.573 949.068 661.08C948.935 661.587 948.855 662.04 948.828 662.44H958.068ZM948.828 666.04C948.908 667.88 949.375 669.213 950.228 670.04C951.082 670.867 952.308 671.28 953.908 671.28C955.055 671.28 956.042 671 956.868 670.44C957.695 669.853 958.202 669.24 958.388 668.6H963.388C962.588 671.08 961.362 672.853 959.708 673.92C958.055 674.987 956.055 675.52 953.708 675.52C952.082 675.52 950.615 675.267 949.308 674.76C948.002 674.227 946.895 673.48 945.988 672.52C945.082 671.56 944.375 670.413 943.868 669.08C943.388 667.747 943.148 666.28 943.148 664.68C943.148 663.133 943.402 661.693 943.908 660.36C944.415 659.027 945.135 657.88 946.068 656.92C947.002 655.933 948.108 655.16 949.388 654.6C950.695 654.04 952.135 653.76 953.708 653.76C955.468 653.76 957.002 654.107 958.308 654.8C959.615 655.467 960.682 656.373 961.508 657.52C962.362 658.667 962.975 659.973 963.348 661.44C963.722 662.907 963.855 664.44 963.748 666.04H948.828ZM967.117 654.32H972.517V658.16H972.597C972.864 657.52 973.224 656.933 973.677 656.4C974.13 655.84 974.65 655.373 975.237 655C975.824 654.6 976.45 654.293 977.117 654.08C977.784 653.867 978.477 653.76 979.197 653.76C979.57 653.76 979.984 653.827 980.437 653.96V659.24C980.17 659.187 979.85 659.147 979.477 659.12C979.104 659.067 978.744 659.04 978.397 659.04C977.357 659.04 976.477 659.213 975.757 659.56C975.037 659.907 974.45 660.387 973.997 661C973.57 661.587 973.264 662.28 973.077 663.08C972.89 663.88 972.797 664.747 972.797 665.68V675H967.117V654.32ZM979.232 668.84H985.512V675H979.232V668.84Z" fill="black"/>
<path d="M562.6 561.2H574.8C576.6 561.2 578.333 561.067 580 560.8C581.667 560.533 583.133 560.033 584.4 559.3C585.667 558.5 586.667 557.4 587.4 556C588.2 554.6 588.6 552.767 588.6 550.5C588.6 548.233 588.2 546.4 587.4 545C586.667 543.6 585.667 542.533 584.4 541.8C583.133 541 581.667 540.467 580 540.2C578.333 539.933 576.6 539.8 574.8 539.8H562.6V561.2ZM546.9 527.6H579.1C583.567 527.6 587.367 528.267 590.5 529.6C593.633 530.867 596.167 532.567 598.1 534.7C600.1 536.833 601.533 539.267 602.4 542C603.333 544.733 603.8 547.567 603.8 550.5C603.8 553.367 603.333 556.2 602.4 559C601.533 561.733 600.1 564.167 598.1 566.3C596.167 568.433 593.633 570.167 590.5 571.5C587.367 572.767 583.567 573.4 579.1 573.4H562.6V599H546.9V527.6ZM611.499 563.2C611.699 559.867 612.533 557.1 613.999 554.9C615.466 552.7 617.333 550.933 619.599 549.6C621.866 548.267 624.399 547.333 627.199 546.8C630.066 546.2 632.933 545.9 635.799 545.9C638.399 545.9 641.033 546.1 643.699 546.5C646.366 546.833 648.799 547.533 650.999 548.6C653.199 549.667 654.999 551.167 656.399 553.1C657.799 554.967 658.499 557.467 658.499 560.6V587.5C658.499 589.833 658.633 592.067 658.899 594.2C659.166 596.333 659.633 597.933 660.299 599H645.899C645.633 598.2 645.399 597.4 645.199 596.6C645.066 595.733 644.966 594.867 644.899 594C642.633 596.333 639.966 597.967 636.899 598.9C633.833 599.833 630.699 600.3 627.499 600.3C625.033 600.3 622.733 600 620.599 599.4C618.466 598.8 616.599 597.867 614.999 596.6C613.399 595.333 612.133 593.733 611.199 591.8C610.333 589.867 609.899 587.567 609.899 584.9C609.899 581.967 610.399 579.567 611.399 577.7C612.466 575.767 613.799 574.233 615.399 573.1C617.066 571.967 618.933 571.133 620.999 570.6C623.133 570 625.266 569.533 627.399 569.2C629.533 568.867 631.633 568.6 633.699 568.4C635.766 568.2 637.599 567.9 639.199 567.5C640.799 567.1 642.066 566.533 642.999 565.8C643.933 565 644.366 563.867 644.299 562.4C644.299 560.867 644.033 559.667 643.499 558.8C643.033 557.867 642.366 557.167 641.499 556.7C640.699 556.167 639.733 555.833 638.599 555.7C637.533 555.5 636.366 555.4 635.099 555.4C632.299 555.4 630.099 556 628.499 557.2C626.899 558.4 625.966 560.4 625.699 563.2H611.499ZM644.299 573.7C643.699 574.233 642.933 574.667 641.999 575C641.133 575.267 640.166 575.5 639.099 575.7C638.099 575.9 637.033 576.067 635.899 576.2C634.766 576.333 633.633 576.5 632.499 576.7C631.433 576.9 630.366 577.167 629.299 577.5C628.299 577.833 627.399 578.3 626.599 578.9C625.866 579.433 625.266 580.133 624.799 581C624.333 581.867 624.099 582.967 624.099 584.3C624.099 585.567 624.333 586.633 624.799 587.5C625.266 588.367 625.899 589.067 626.699 589.6C627.499 590.067 628.433 590.4 629.499 590.6C630.566 590.8 631.666 590.9 632.799 590.9C635.599 590.9 637.766 590.433 639.299 589.5C640.833 588.567 641.966 587.467 642.699 586.2C643.433 584.867 643.866 583.533 643.999 582.2C644.199 580.867 644.299 579.8 644.299 579V573.7ZM671.021 527.6H686.721V585.8H721.521V599H671.021V527.6ZM730.298 527.6H752.398L769.098 576.7H769.298L785.098 527.6H807.198V599H792.498V548.4H792.298L774.798 599H762.698L745.198 548.9H744.998V599H730.298V527.6Z" fill="black"/>
<path d="M856.9 571.4H875.4L866.4 545.2H866.2L856.9 571.4ZM858.4 527.6H874.5L901.2 599H884.9L879.5 583.1H852.8L847.2 599H831.4L858.4 527.6ZM923.057 561.2H935.257C937.057 561.2 938.79 561.067 940.457 560.8C942.124 560.533 943.59 560.033 944.857 559.3C946.124 558.5 947.124 557.4 947.857 556C948.657 554.6 949.057 552.767 949.057 550.5C949.057 548.233 948.657 546.4 947.857 545C947.124 543.6 946.124 542.533 944.857 541.8C943.59 541 942.124 540.467 940.457 540.2C938.79 539.933 937.057 539.8 935.257 539.8H923.057V561.2ZM907.357 527.6H939.557C944.024 527.6 947.824 528.267 950.957 529.6C954.09 530.867 956.624 532.567 958.557 534.7C960.557 536.833 961.99 539.267 962.857 542C963.79 544.733 964.257 547.567 964.257 550.5C964.257 553.367 963.79 556.2 962.857 559C961.99 561.733 960.557 564.167 958.557 566.3C956.624 568.433 954.09 570.167 950.957 571.5C947.824 572.767 944.024 573.4 939.557 573.4H923.057V599H907.357V527.6ZM974.056 527.6H989.756V599H974.056V527.6Z" fill="url(#paint0_linear_1_33)"/>
<rect x="604" y="126" width="327.786" height="339" rx="128" fill="url(#paint1_radial_1_33)"/>
<g filter="url(#filter4_i_1_33)">
<rect x="618.664" y="141.527" width="298.458" height="307.947" rx="128" fill="url(#paint2_linear_1_33)"/>
</g>
<path d="M778.011 375.134C776.377 351.415 784.668 326.597 795.816 316.887C792.684 325.651 814.389 330.995 824.531 340.682C829.76 345.677 841.806 364.688 824.531 383.092C809.848 398.735 784.194 383.216 778.011 375.134Z" fill="#3DDB85"/>
<path d="M776.954 255.442C748.972 305.634 766.067 356.196 778.112 375.202C776.487 306.536 819.09 301.518 850.378 293.026C881.666 284.533 889.249 254.796 872.642 231.858C854.298 206.521 807.404 200.822 776.954 255.442Z" fill="#3D16A8"/>
<path d="M746.923 361.719C744.712 343.556 740.419 324.557 723.945 319.585C728.948 325.11 718.026 341.343 709.66 349.199C702.259 356.15 698.894 373.733 712.868 380.929C728.173 388.811 744.709 369.921 746.923 361.719Z" fill="#3DDB85"/>
<path d="M736.113 271.208C762.568 307.422 753.901 348.646 746.262 364.731C741.193 311.008 707.503 311.557 682.318 308.211C657.132 304.865 651.036 278.198 661.871 258.569C673.839 236.887 707.326 231.8 736.113 271.208Z" fill="#3D16A8"/>
</g>
<defs>
<filter id="filter0_f_1_33" x="370.152" y="-43" width="657.666" height="531.701" filterUnits="userSpaceOnUse" color-interpolation-filters="sRGB">
<feFlood flood-opacity="0" result="BackgroundImageFix"/>
<feBlend mode="normal" in="SourceGraphic" in2="BackgroundImageFix" result="shape"/>
<feGaussianBlur stdDeviation="100" result="effect1_foregroundBlur_1_33"/>
</filter>
<filter id="filter1_f_1_33" x="551.97" y="-29.3481" width="603.157" height="491.548" filterUnits="userSpaceOnUse" color-interpolation-filters="sRGB">
<feFlood flood-opacity="0" result="BackgroundImageFix"/>
<feBlend mode="normal" in="SourceGraphic" in2="BackgroundImageFix" result="shape"/>
<feGaussianBlur stdDeviation="100" result="effect1_foregroundBlur_1_33"/>
</filter>
<filter id="filter2_f_1_33" x="368" y="62.2001" width="709.666" height="559.54" filterUnits="userSpaceOnUse" color-interpolation-filters="sRGB">
<feFlood flood-opacity="0" result="BackgroundImageFix"/>
<feBlend mode="normal" in="SourceGraphic" in2="BackgroundImageFix" result="shape"/>
<feGaussianBlur stdDeviation="100" result="effect1_foregroundBlur_1_33"/>
</filter>
<filter id="filter3_f_1_33" x="552.254" y="54.1158" width="617.68" height="579.884" filterUnits="userSpaceOnUse" color-interpolation-filters="sRGB">
<feFlood flood-opacity="0" result="BackgroundImageFix"/>
<feBlend mode="normal" in="SourceGraphic" in2="BackgroundImageFix" result="shape"/>
<feGaussianBlur stdDeviation="100" result="effect1_foregroundBlur_1_33"/>
</filter>
<filter id="filter4_i_1_33" x="618.664" y="141.527" width="298.458" height="311.947" filterUnits="userSpaceOnUse" color-interpolation-filters="sRGB">
<feFlood flood-opacity="0" result="BackgroundImageFix"/>
<feBlend mode="normal" in="SourceGraphic" in2="BackgroundImageFix" result="shape"/>
<feColorMatrix in="SourceAlpha" type="matrix" values="0 0 0 0 0 0 0 0 0 0 0 0 0 0 0 0 0 0 127 0" result="hardAlpha"/>
<feOffset dy="4"/>
<feGaussianBlur stdDeviation="5"/>
<feComposite in2="hardAlpha" operator="arithmetic" k2="-1" k3="1"/>
<feColorMatrix type="matrix" values="0 0 0 0 0 0 0 0 0 0 0 0 0 0 0 0 0 0 0.25 0"/>
<feBlend mode="normal" in2="shape" result="effect1_innerShadow_1_33"/>
</filter>
<linearGradient id="paint0_linear_1_33" x1="853.686" y1="522" x2="984.073" y2="592.38" gradientUnits="userSpaceOnUse">
<stop stop-color="#3E17A9"/>
<stop offset="1" stop-color="#3ED786"/>
</linearGradient>
<radialGradient id="paint1_radial_1_33" cx="0" cy="0" r="1" gradientUnits="userSpaceOnUse" gradientTransform="translate(592.827 -57.8016) rotate(79.2234) scale(573.432 555.807)">
<stop stop-color="#3D16A8"/>
<stop offset="0.4375" stop-color="#3D16A8"/>
<stop offset="1" stop-color="#3DDB85"/>
</radialGradient>
<linearGradient id="paint2_linear_1_33" x1="618.664" y1="141.527" x2="926.46" y2="439.839" gradientUnits="userSpaceOnUse">
<stop stop-color="white"/>
<stop offset="1" stop-color="#E3E3E3"/>
</linearGradient>
<clipPath id="clip0_1_33">
<rect width="1538" height="725" fill="white"/>
</clipPath>
</defs>
</svg>
